<svg width="322" height="202" viewBox="0 0 322 202" fill="none" xmlns="http://www.w3.org/2000/svg">
<g clip-path="url(#clip0_4_18389)">
<g clip-path="url(#clip1_4_18389)">
<path d="M239.561 71.3394C239.561 71.3394 232.012 12.269 187.473 54.738C130.377 109.177 91.9973 0.978268 49.6418 45.1439C26.5021 69.2713 87.6484 123.232 46.8113 151.629C5.97424 180.027 39.3455 201.286 39.3455 201.286H271.229C271.229 201.286 295.234 203.02 297.051 172.645C298.865 142.269 270.961 141.901 288.279 103.89C305.598 65.8781 245.003 95.5338 239.561 71.3394Z" fill="#F5FBFF"/>
<g opacity="0.5">
<path opacity="0.5" d="M159.472 103.33C166.569 103.33 172.321 97.5769 172.321 90.4805C172.321 83.3841 166.569 77.6313 159.472 77.6313C152.376 77.6313 146.623 83.3841 146.623 90.4805C146.623 97.5769 152.376 103.33 159.472 103.33Z" fill="white" stroke="#4D6173" stroke-width="0.677341" stroke-miterlimit="10"/>
<g opacity="0.5">
<path d="M159.473 85.9919C159.572 86.7393 159.638 87.4889 159.685 88.2362C159.715 88.611 159.726 88.9835 159.746 89.3583C159.766 89.7331 159.771 90.1057 159.785 90.4805L159.69 90.2569C160.186 90.7153 160.672 91.1871 161.155 91.6568C161.634 92.1332 162.115 92.6096 162.58 93.0995C162.817 93.3411 163.047 93.5872 163.275 93.8378C163.505 94.0862 163.733 94.3345 163.957 94.5897C164.409 95.0954 164.849 95.6102 165.266 96.1498C164.72 95.7434 164.194 95.3144 163.679 94.8741C163.42 94.6574 163.164 94.4339 162.912 94.2081C162.656 93.9846 162.406 93.7588 162.157 93.5285C161.656 93.0747 161.171 92.605 160.683 92.1377C160.202 91.6635 159.719 91.1894 159.252 90.7017L159.152 90.6001L159.157 90.4782C159.17 90.1034 159.175 89.7309 159.195 89.3561C159.216 88.9813 159.227 88.6087 159.256 88.2339C159.308 87.4866 159.374 86.7393 159.473 85.9919Z" fill="#4D6173"/>
</g>
</g>
<g opacity="0.2">
<rect x="224.307" y="89.6775" width="28.9106" height="53.8059" fill="white" stroke="#A4B6C6" stroke-width="1.60615"/>
<rect x="224.307" y="136.256" width="28.9106" height="7.22766" stroke="#A4B6C6" stroke-width="1.60615"/>
<rect x="224.307" y="129.028" width="28.9106" height="7.22766" stroke="#A4B6C6" stroke-width="1.60615"/>
<rect x="224.307" y="121.8" width="28.9106" height="7.22766" stroke="#A4B6C6" stroke-width="1.60615"/>
<rect x="224.307" y="114.573" width="28.9106" height="7.22766" stroke="#A4B6C6" stroke-width="1.60615"/>
<rect x="224.307" y="107.345" width="28.9106" height="7.22766" stroke="#A4B6C6" stroke-width="1.60615"/>
<rect x="224.307" y="100.117" width="28.9106" height="7.22766" stroke="#A4B6C6" stroke-width="1.60615"/>
<rect x="224.307" y="94.4958" width="28.9106" height="5.62151" stroke="#A4B6C6" stroke-width="1.60615"/>
<rect x="195.396" y="89.6775" width="28.9106" height="53.8059" stroke="#A4B6C6" stroke-width="1.60615"/>
<rect x="198.608" y="94.4958" width="22.486" height="44.169" fill="white" stroke="#A4B6C6" stroke-width="1.60615"/>
</g>
<g opacity="0.2">
<path d="M83.8472 102.918L83.166 105.618H94.2283L93.5471 102.918M83.8472 102.918L86.9505 90.6184V85.8185H88.6972M83.8472 102.918H93.5471M93.5471 102.918L90.4439 90.6184V85.8185H88.6972M88.6972 85.8185C88.4061 83.4186 88.8136 77.7788 92.7728 74.4189" stroke="#A4B6C6" stroke-width="1.60615"/>
<rect x="100.052" y="93.3184" width="14.5557" height="12.5996" rx="3.21229" fill="white" stroke="#A4B6C6" stroke-width="1.60615"/>
<path d="M100.052 96.9182H114.607" stroke="#A4B6C6" stroke-width="1.60615"/>
<path d="M107.33 93.3184C105.584 93.1184 101.217 91.8185 101.217 88.2186C104.128 88.5186 105.292 89.1186 107.33 93.3184ZM107.33 93.3184C106.069 91.1185 104.361 85.8787 107.621 82.5188C110.649 85.8787 108.689 91.1185 107.33 93.3184ZM107.33 93.3184C107.33 93.6184 109.659 88.2186 114.317 87.9186C114.317 90.5585 109.659 92.6184 107.33 93.3184Z" stroke="#A4B6C6" stroke-width="1.60615"/>
<rect x="77.3438" y="105.918" width="46.5782" height="5.39981" stroke="#A4B6C6" stroke-width="1.60615"/>
</g>
<path d="M39.0508 200.926H260.009" stroke="#A4B6C6" stroke-width="1.60615" stroke-miterlimit="10"/>
<path d="M267.747 200.926H295.055" stroke="#A4B6C6" stroke-width="1.60615" stroke-miterlimit="10"/>
</g>
<path d="M131.54 148.29L123.003 191.129C122.424 194.039 124.352 196.926 127.261 197.506L128.565 197.766L170.1 206.043C173.01 206.623 175.897 204.695 176.477 201.785L186.873 149.616L187.153 148.211C187.733 145.302 185.805 142.414 182.896 141.834L150.791 135.437" fill="#C2CDD6"/>
<path d="M131.54 148.29L123.003 191.129C122.424 194.039 124.352 196.926 127.261 197.506L128.565 197.766L170.1 206.043C173.01 206.623 175.897 204.695 176.477 201.785L186.873 149.616L187.153 148.211C187.733 145.302 185.805 142.414 182.896 141.834L150.791 135.437" stroke="#A4B6C6" stroke-width="1.60615" stroke-miterlimit="10" stroke-linecap="round" stroke-linejoin="round"/>
<path d="M150.792 135.437L147.593 151.489L131.541 148.29L150.792 135.437Z" fill="#A4B6C6" stroke="#A4B6C6" stroke-width="1.60615" stroke-miterlimit="10" stroke-linecap="round" stroke-linejoin="round"/>
<path d="M167.689 145.714L178.248 188.1C178.965 190.978 177.176 193.954 174.298 194.671L173.007 194.993L131.911 205.23C129.033 205.948 126.057 204.159 125.34 201.28L112.481 149.662L112.135 148.273C111.418 145.394 113.207 142.418 116.085 141.701L147.85 133.788" fill="#EAEEF9"/>
<path d="M167.689 145.714L178.248 188.1C178.965 190.978 177.176 193.954 174.298 194.671L173.007 194.993L131.911 205.23C129.033 205.948 126.057 204.159 125.34 201.28L112.481 149.662L112.135 148.273C111.418 145.394 113.207 142.418 116.085 141.701L147.85 133.788" stroke="#A4B6C6" stroke-width="1.60615" stroke-miterlimit="10" stroke-linecap="round" stroke-linejoin="round"/>
<path d="M147.85 133.788L151.806 149.67L167.689 145.714L147.85 133.788Z" fill="#A4B6C6" stroke="#A4B6C6" stroke-width="1.60615" stroke-miterlimit="10" stroke-linecap="round" stroke-linejoin="round"/>
<path d="M178.076 151.818V195.5C178.076 198.466 175.621 200.922 172.654 200.922H171.324H128.973C126.006 200.922 123.551 198.466 123.551 195.5V142.304V140.872C123.551 137.906 126.006 135.45 128.973 135.45H161.708" fill="white"/>
<path d="M178.076 151.818V195.5C178.076 198.466 175.621 200.922 172.654 200.922H171.324H128.973C126.006 200.922 123.551 198.466 123.551 195.5V142.304V140.872C123.551 137.906 126.006 135.45 128.973 135.45H161.708" stroke="#A4B6C6" stroke-width="1.60615" stroke-miterlimit="10" stroke-linecap="round" stroke-linejoin="round"/>
<path d="M161.708 135.45V151.818H178.076L161.708 135.45Z" fill="#A4B6C6" stroke="#A4B6C6" stroke-width="1.60615" stroke-miterlimit="10" stroke-linecap="round" stroke-linejoin="round"/>
<path d="M184.369 194.389L169.83 185.42L171.888 182.086L186.42 191.067L184.369 194.389Z" fill="#C2CDD6" stroke="#A4B6C6" stroke-width="0.923534" stroke-miterlimit="10"/>
<path d="M191.621 198.907L180.471 192.022C179.54 191.448 179.249 190.22 179.824 189.289C180.399 188.358 181.626 188.068 182.557 188.643L193.707 195.528C194.638 196.103 194.929 197.33 194.354 198.261C193.779 199.192 192.552 199.482 191.621 198.907Z" fill="#A4B6C6" stroke="#A4B6C6" stroke-width="0.923534" stroke-miterlimit="10"/>
<path d="M191.116 199.635L176.77 190.777C176.437 190.571 176.334 190.134 176.537 189.792L178.801 186.125C179.007 185.791 179.444 185.688 179.787 185.892L194.132 194.75C194.466 194.956 194.569 195.392 194.365 195.735L192.101 199.402C191.886 199.737 191.449 199.841 191.116 199.635Z" fill="#C2CDD6" stroke="#A4B6C6" stroke-width="0.923534" stroke-miterlimit="10"/>
<path d="M147.563 150.704C135.254 153.615 127.638 165.949 130.549 178.257C133.458 190.556 145.794 198.182 158.093 195.273C170.401 192.362 178.017 180.028 175.106 167.72C172.195 155.412 159.861 147.796 147.563 150.704ZM157.126 191.143C147.244 193.48 137.316 187.239 134.944 177.208C132.572 167.177 138.654 157.16 148.536 154.823C158.418 152.486 168.346 158.727 170.718 168.758C173.091 178.788 166.999 188.808 157.126 191.143Z" fill="#C2CDD6" stroke="#A4B6C6" stroke-width="0.923534" stroke-miterlimit="10"/>
<ellipse cx="152.794" cy="172.847" rx="17.9424" ry="18.0878" transform="rotate(-13.3056 152.794 172.847)" fill="white"/>
<path d="M159.947 173.442C161.307 173.437 162.469 172.266 162.464 170.905C162.459 169.545 161.289 168.383 159.928 168.388C158.568 168.393 157.406 169.563 157.411 170.924C157.416 172.382 158.489 173.447 159.947 173.442Z" fill="#C2CDD6"/>
<path d="M158.469 180.199L157.206 180.204C156.128 177.875 153.307 177.011 151.075 178.185C150.202 178.577 149.428 179.357 149.042 180.234L147.779 180.238C148.837 177.221 152.33 175.654 155.25 176.809C156.612 177.387 157.88 178.549 158.469 180.199Z" fill="#C2CDD6"/>
<path d="M145.492 173.513C146.852 173.508 148.014 172.337 148.009 170.976C148.004 169.616 146.834 168.454 145.473 168.459C144.113 168.464 142.951 169.634 142.956 170.995C143.058 172.452 144.131 173.518 145.492 173.513Z" fill="#C2CDD6"/>
</g>
<defs>
<clipPath id="clip0_4_18389">
<rect width="321.229" height="200.768" fill="white" transform="translate(0 0.536377)"/>
</clipPath>
<clipPath id="clip1_4_18389">
<rect width="270.884" height="167.123" fill="white" transform="translate(26.501 34.2654)"/>
</clipPath>
</defs>
</svg>
